<mxfile host="app.diagrams.net" modified="2023-03-31T13:35:56.832Z" agent="Mozilla/5.0 (Macintosh; Intel Mac OS X 10_15_7) AppleWebKit/537.36 (KHTML, like Gecko) Chrome/111.0.0.0 Safari/537.36" etag="3IfnKJUVBdqySMrulhNc" version="21.1.2" type="github">
  <diagram name="Page-1" id="4v8jdQ_9QiTM1c_yFP0A">
    <mxGraphModel dx="755" dy="423" grid="1" gridSize="10" guides="1" tooltips="1" connect="1" arrows="1" fold="1" page="1" pageScale="1" pageWidth="1654" pageHeight="1169" math="0" shadow="0">
      <root>
        <mxCell id="0" />
        <mxCell id="1" parent="0" />
        <mxCell id="7KavUZQOAWa1TJVqD98Y-1" value="RPG Store" style="swimlane;childLayout=stackLayout;resizeParent=1;resizeParentMax=0;startSize=20;html=1;" vertex="1" parent="1">
          <mxGeometry x="480" y="120" width="490.00000000000045" height="600" as="geometry" />
        </mxCell>
        <mxCell id="7KavUZQOAWa1TJVqD98Y-2" value="&lt;font style=&quot;font-size: 8px;&quot;&gt;Constraint Category&lt;/font&gt;" style="swimlane;startSize=20;html=1;" vertex="1" parent="7KavUZQOAWa1TJVqD98Y-1">
          <mxGeometry y="20" width="120" height="580" as="geometry" />
        </mxCell>
        <mxCell id="7KavUZQOAWa1TJVqD98Y-7" value="&lt;font style=&quot;font-size: 9px;&quot;&gt;Hardware and Software&amp;nbsp;&lt;br&gt;Platforms&lt;/font&gt;" style="text;html=1;align=center;verticalAlign=middle;resizable=0;points=[];autosize=1;strokeColor=none;fillColor=none;" vertex="1" parent="7KavUZQOAWa1TJVqD98Y-2">
          <mxGeometry x="-4.547473508864641e-13" y="70" width="120" height="40" as="geometry" />
        </mxCell>
        <mxCell id="7KavUZQOAWa1TJVqD98Y-16" value="&lt;font style=&quot;font-size: 10px;&quot;&gt;Performance&lt;br&gt;Requirements&lt;/font&gt;" style="text;html=1;align=center;verticalAlign=middle;resizable=0;points=[];autosize=1;strokeColor=none;fillColor=none;" vertex="1" parent="7KavUZQOAWa1TJVqD98Y-2">
          <mxGeometry x="15" y="180" width="90" height="40" as="geometry" />
        </mxCell>
        <mxCell id="7KavUZQOAWa1TJVqD98Y-20" value="&lt;font style=&quot;font-size: 10px;&quot;&gt;Persistent Storage&amp;nbsp;&lt;br&gt;and Transactions&lt;/font&gt;" style="text;html=1;align=center;verticalAlign=middle;resizable=0;points=[];autosize=1;strokeColor=none;fillColor=none;" vertex="1" parent="7KavUZQOAWa1TJVqD98Y-2">
          <mxGeometry x="5" y="270" width="110" height="40" as="geometry" />
        </mxCell>
        <mxCell id="7KavUZQOAWa1TJVqD98Y-34" value="Budgets" style="text;html=1;align=center;verticalAlign=middle;resizable=0;points=[];autosize=1;strokeColor=none;fillColor=none;" vertex="1" parent="7KavUZQOAWa1TJVqD98Y-2">
          <mxGeometry x="25" y="445" width="70" height="30" as="geometry" />
        </mxCell>
        <mxCell id="7KavUZQOAWa1TJVqD98Y-29" value="Usability" style="text;html=1;align=center;verticalAlign=middle;resizable=0;points=[];autosize=1;strokeColor=none;fillColor=none;" vertex="1" parent="7KavUZQOAWa1TJVqD98Y-2">
          <mxGeometry x="25" y="360" width="70" height="30" as="geometry" />
        </mxCell>
        <mxCell id="7KavUZQOAWa1TJVqD98Y-3" value="&lt;font style=&quot;font-size: 8px;&quot;&gt;Implementation Constraint&lt;/font&gt;" style="swimlane;startSize=20;html=1;" vertex="1" parent="7KavUZQOAWa1TJVqD98Y-1">
          <mxGeometry x="120" y="20" width="190" height="580" as="geometry" />
        </mxCell>
        <mxCell id="7KavUZQOAWa1TJVqD98Y-11" value="&lt;font style=&quot;font-size: 7px;&quot;&gt;&amp;gt; Servers may not be &lt;br&gt;&amp;nbsp; &amp;nbsp;suitable for a store &lt;br&gt;&amp;nbsp; &amp;nbsp;with many users.&amp;nbsp;&lt;/font&gt;" style="text;html=1;align=left;verticalAlign=middle;resizable=0;points=[];autosize=1;strokeColor=none;fillColor=none;" vertex="1" parent="7KavUZQOAWa1TJVqD98Y-3">
          <mxGeometry x="10" y="20" width="90" height="60" as="geometry" />
        </mxCell>
        <mxCell id="7KavUZQOAWa1TJVqD98Y-17" value="&lt;font style=&quot;font-size: 7px;&quot;&gt;&amp;gt; The current model does not&lt;br&gt;&amp;nbsp; &amp;nbsp;support all features required &lt;br&gt;&amp;nbsp; &amp;nbsp;for an optimal process so would require &lt;br&gt;&amp;nbsp; &amp;nbsp;more development work&amp;nbsp;&lt;/font&gt;" style="text;html=1;align=left;verticalAlign=middle;resizable=0;points=[];autosize=1;strokeColor=none;fillColor=none;" vertex="1" parent="7KavUZQOAWa1TJVqD98Y-3">
          <mxGeometry x="9.999999999999545" y="170" width="150" height="70" as="geometry" />
        </mxCell>
        <mxCell id="7KavUZQOAWa1TJVqD98Y-18" value="&lt;span style=&quot;font-size: 7px;&quot;&gt;&amp;gt; the current infrastructure may &lt;br&gt;not be suitable for&lt;br&gt;&amp;nbsp;an increased load&amp;nbsp;&lt;/span&gt;" style="text;html=1;align=left;verticalAlign=middle;resizable=0;points=[];autosize=1;strokeColor=none;fillColor=none;" vertex="1" parent="7KavUZQOAWa1TJVqD98Y-3">
          <mxGeometry x="10" y="80" width="120" height="60" as="geometry" />
        </mxCell>
        <mxCell id="7KavUZQOAWa1TJVqD98Y-21" value="&lt;font style=&quot;font-size: 7px;&quot;&gt;&amp;gt; Stored data and transactions &lt;br&gt;&amp;nbsp; &amp;nbsp;must persist and our small &lt;br&gt;&amp;nbsp; &amp;nbsp;scale app won&#39;t be able to manage this&amp;nbsp;&lt;/font&gt;" style="text;html=1;align=left;verticalAlign=middle;resizable=0;points=[];autosize=1;strokeColor=none;fillColor=none;" vertex="1" parent="7KavUZQOAWa1TJVqD98Y-3">
          <mxGeometry x="5" y="260" width="150" height="60" as="geometry" />
        </mxCell>
        <mxCell id="7KavUZQOAWa1TJVqD98Y-30" value="&lt;font style=&quot;font-size: 7px;&quot;&gt;&amp;nbsp;&amp;gt;the app has been &lt;br&gt;&amp;nbsp;tested by one person,&lt;br&gt;&amp;nbsp;thus will not be very suitable &lt;br&gt;&amp;nbsp;for mass consumption&lt;/font&gt;" style="text;html=1;align=left;verticalAlign=middle;resizable=0;points=[];autosize=1;strokeColor=none;fillColor=none;" vertex="1" parent="7KavUZQOAWa1TJVqD98Y-3">
          <mxGeometry x="10" y="340" width="110" height="70" as="geometry" />
        </mxCell>
        <mxCell id="7KavUZQOAWa1TJVqD98Y-35" value="&lt;span style=&quot;font-size: 7px;&quot;&gt;&amp;gt; The app has no budget and will not &lt;/span&gt;&lt;br&gt;&lt;span style=&quot;font-size: 7px;&quot;&gt;&amp;nbsp; &amp;nbsp;be able to run indefinitely.&lt;/span&gt;" style="text;html=1;align=left;verticalAlign=middle;resizable=0;points=[];autosize=1;strokeColor=none;fillColor=none;" vertex="1" parent="7KavUZQOAWa1TJVqD98Y-3">
          <mxGeometry x="5" y="430" width="140" height="40" as="geometry" />
        </mxCell>
        <mxCell id="7KavUZQOAWa1TJVqD98Y-43" value="&lt;font style=&quot;font-size: 7px;&quot;&gt;&amp;gt; The app&amp;nbsp; has been produced by one person and&lt;br&gt;&amp;nbsp;to provide all the features&amp;nbsp; suitable for &lt;br&gt;mass consumption will take far too long&amp;nbsp;&lt;/font&gt;" style="text;html=1;align=left;verticalAlign=middle;resizable=0;points=[];autosize=1;strokeColor=none;fillColor=none;" vertex="1" parent="7KavUZQOAWa1TJVqD98Y-3">
          <mxGeometry x="10" y="500" width="180" height="60" as="geometry" />
        </mxCell>
        <mxCell id="7KavUZQOAWa1TJVqD98Y-4" value="&lt;font style=&quot;font-size: 8px;&quot;&gt;Solution&lt;/font&gt;" style="swimlane;startSize=20;html=1;" vertex="1" parent="7KavUZQOAWa1TJVqD98Y-1">
          <mxGeometry x="310" y="20" width="180.00000000000045" height="580" as="geometry" />
        </mxCell>
        <mxCell id="7KavUZQOAWa1TJVqD98Y-13" value="&lt;font style=&quot;font-size: 7px;&quot;&gt;&amp;gt; A larger team to increase &lt;br&gt;&lt;div style=&quot;&quot;&gt;&lt;span style=&quot;background-color: initial;&quot;&gt;&amp;nbsp; &amp;nbsp;production on the app:&amp;nbsp;&lt;/span&gt;&lt;/div&gt;&amp;nbsp; &amp;nbsp;This will improve performance &lt;br&gt;&amp;nbsp; &amp;nbsp;and usability,&amp;nbsp; as there will be more ideas&amp;nbsp; &amp;nbsp;&lt;/font&gt;" style="text;html=1;align=left;verticalAlign=middle;resizable=0;points=[];autosize=1;strokeColor=none;fillColor=none;" vertex="1" parent="7KavUZQOAWa1TJVqD98Y-4">
          <mxGeometry x="10.000000000000455" y="170" width="160" height="70" as="geometry" />
        </mxCell>
        <mxCell id="7KavUZQOAWa1TJVqD98Y-14" value="&lt;font style=&quot;font-size: 7px;&quot;&gt;&amp;nbsp; &amp;nbsp; &amp;nbsp; &amp;gt; More capital to upscale the production&lt;/font&gt;" style="text;html=1;align=left;verticalAlign=middle;resizable=0;points=[];autosize=1;strokeColor=none;fillColor=none;" vertex="1" parent="7KavUZQOAWa1TJVqD98Y-4">
          <mxGeometry x="4.547473508864641e-13" y="30" width="160" height="30" as="geometry" />
        </mxCell>
        <mxCell id="7KavUZQOAWa1TJVqD98Y-27" value="&lt;font style=&quot;font-size: 7px;&quot;&gt;&amp;gt; Upgraded infrastructure to improve this&amp;nbsp;&amp;nbsp;&lt;/font&gt;" style="text;html=1;align=center;verticalAlign=middle;resizable=0;points=[];autosize=1;strokeColor=none;fillColor=none;" vertex="1" parent="7KavUZQOAWa1TJVqD98Y-4">
          <mxGeometry x="4.547473508864641e-13" y="260" width="150" height="30" as="geometry" />
        </mxCell>
        <mxCell id="7KavUZQOAWa1TJVqD98Y-32" value="&lt;font style=&quot;font-size: 7px;&quot;&gt;&amp;gt; We need to&amp;nbsp; make the app public&lt;br&gt;&amp;nbsp; and offer it out to the community for &lt;br&gt;&amp;nbsp; them to give their &lt;br&gt;&amp;nbsp; honest and unfiltered opinion on the app.&amp;nbsp;&lt;br&gt;&amp;nbsp;then take on the feedback and improve&lt;br&gt;&lt;/font&gt;" style="text;html=1;align=left;verticalAlign=middle;resizable=0;points=[];autosize=1;strokeColor=none;fillColor=none;" vertex="1" parent="7KavUZQOAWa1TJVqD98Y-4">
          <mxGeometry x="10.000000000000455" y="330" width="160" height="90" as="geometry" />
        </mxCell>
        <mxCell id="7KavUZQOAWa1TJVqD98Y-36" value="&lt;font style=&quot;font-size: 7px;&quot;&gt;&amp;gt; The app needs external investment. &lt;br&gt;create betas and demo the &lt;br&gt;app to potential investors&lt;/font&gt;" style="text;html=1;align=left;verticalAlign=middle;resizable=0;points=[];autosize=1;strokeColor=none;fillColor=none;" vertex="1" parent="7KavUZQOAWa1TJVqD98Y-4">
          <mxGeometry x="10.000000000000455" y="420" width="140" height="60" as="geometry" />
        </mxCell>
        <mxCell id="7KavUZQOAWa1TJVqD98Y-44" value="&lt;font style=&quot;font-size: 7px;&quot;&gt;&amp;gt; Increase the size of the team &lt;br&gt;&amp;nbsp; &amp;nbsp;to produce a suitable product faster.&amp;nbsp;&lt;/font&gt;" style="text;html=1;align=left;verticalAlign=middle;resizable=0;points=[];autosize=1;strokeColor=none;fillColor=none;" vertex="1" parent="7KavUZQOAWa1TJVqD98Y-4">
          <mxGeometry x="10" y="510" width="140" height="40" as="geometry" />
        </mxCell>
        <mxCell id="7KavUZQOAWa1TJVqD98Y-19" value="" style="endArrow=none;html=1;rounded=0;" edge="1" parent="7KavUZQOAWa1TJVqD98Y-1">
          <mxGeometry width="50" height="50" relative="1" as="geometry">
            <mxPoint y="280" as="sourcePoint" />
            <mxPoint x="490" y="280" as="targetPoint" />
            <Array as="points">
              <mxPoint x="10" y="280" />
            </Array>
          </mxGeometry>
        </mxCell>
        <mxCell id="7KavUZQOAWa1TJVqD98Y-15" value="" style="endArrow=none;html=1;rounded=0;" edge="1" parent="1">
          <mxGeometry width="50" height="50" relative="1" as="geometry">
            <mxPoint x="480" y="300" as="sourcePoint" />
            <mxPoint x="970" y="300" as="targetPoint" />
          </mxGeometry>
        </mxCell>
        <mxCell id="7KavUZQOAWa1TJVqD98Y-28" value="" style="endArrow=none;html=1;rounded=0;" edge="1" parent="1">
          <mxGeometry width="50" height="50" relative="1" as="geometry">
            <mxPoint x="480" y="480" as="sourcePoint" />
            <mxPoint x="970" y="480" as="targetPoint" />
          </mxGeometry>
        </mxCell>
        <mxCell id="7KavUZQOAWa1TJVqD98Y-33" value="" style="endArrow=none;html=1;rounded=0;" edge="1" parent="1">
          <mxGeometry width="50" height="50" relative="1" as="geometry">
            <mxPoint x="480" y="560" as="sourcePoint" />
            <mxPoint x="970" y="560" as="targetPoint" />
          </mxGeometry>
        </mxCell>
        <mxCell id="7KavUZQOAWa1TJVqD98Y-40" value="" style="endArrow=none;html=1;rounded=0;" edge="1" parent="1">
          <mxGeometry width="50" height="50" relative="1" as="geometry">
            <mxPoint x="480" y="640" as="sourcePoint" />
            <mxPoint x="970" y="640" as="targetPoint" />
          </mxGeometry>
        </mxCell>
        <mxCell id="7KavUZQOAWa1TJVqD98Y-41" value="Time&lt;br&gt;Limitations" style="text;html=1;align=center;verticalAlign=middle;resizable=0;points=[];autosize=1;strokeColor=none;fillColor=none;" vertex="1" parent="1">
          <mxGeometry x="500" y="650" width="80" height="40" as="geometry" />
        </mxCell>
      </root>
    </mxGraphModel>
  </diagram>
</mxfile>
